# xmcd
#
# Track frame offsets:
#	150
#	17437
#	30565
#	53426
#	65437
#	87897
#	106483
#	121564
#	136969
#	157953
#	172149
#	187847
#	207836
#	229704
#	247991
#	267330
#	280123
#
# Disc length: 4030 seconds
#
# Revision: 0
# Processed by: cddbd v1.5.2PL0 Copyright (c) Steve Scherf et al.
# Submitted via: EasyCDDAExtractor 11.5.0.1
#
DISCID=d30fbc11
DTITLE=Deák Bill Gyula - Hatvan Csapás
DYEAR=2008
DGENRE=Blues
TTITLE0=Hatvan csapás
TTITLE1=A nagy generáció temetésére
TTITLE2=Kéne egy üveg bor
TTITLE3=Lát-e, aki lát
TTITLE4=Jó volna
TTITLE5=Péntek esti blues
TTITLE6=Anyám és apám
TTITLE7=Az országút előttem
TTITLE8=A titkos lány
TTITLE9=Hóhér blues
TTITLE10=Bill kapitány imája
TTITLE11=Most vagy soha
TTITLE12=Angyalok asztalodon
TTITLE13=Intések fiamnak
TTITLE14=Nem vagyok eladó
TTITLE15=Soha és mindig
TTITLE16=A zöld, a bíbor, a fekete
EXTD=
EXTT0=
EXTT1=
EXTT2=
EXTT3=
EXTT4=
EXTT5=
EXTT6=
EXTT7=
EXTT8=
EXTT9=
EXTT10=
EXTT11=
EXTT12=
EXTT13=
EXTT14=
EXTT15=
EXTT16=
PLAYORDER=
